{"title":"Get.Him.To.The.Greek.2010.DVDRiP.XviD.MULTISUB-Zen_Bud","uid":5980604,"size":981390802,"categoryP":"video","categoryS":"movies","magnet":"?xt=urn:btih:556db5a6c67523004b5160f279c82e980bd4e50c&amp;dn=Get.Him.To.The.Greek.2010.DVDRiP.XviD.MULTISUB-Zen_Bud&amp;tr=udp%3A%2F%2Ftracker.openbittorrent.com%3A80&amp;tr=udp%3A%2F%2Fopen.demonii.com%3A1337&amp;tr=udp%3A%2F%2Ftracker.coppersurfer.tk%3A6969&amp;tr=udp%3A%2F%2Fexodus.desync.com%3A6969","seeders":2,"leechers":0,"uploader":"Zen_Bud","files":-1,"time":1290582650,"description":"***** Get.Him.To.The.Greek.2010.DVDRiP.XviD.MULTISUB-Zen_Bud ******\n\nFormat                           : AVI\nFormat profile                   : OpenDML\nFile size                        : 879 MiB\nDuration                         : 1h 44mn\nOverall bit rate                 : 1 174 Kbps\nWriting application              : AVI-Mux GUI 1.17.8.3, \n\nVideo\n\nFormat                           : MPEG-4 Visual\nCodec ID/Hint                    : XviD\nDuration                         : 1h 44mn\nBit rate                         : 1 042 Kbps\nWidth                            : 720 pixels\nHeight                           : 552 pixels\nDisplay aspect ratio             : 1.855\nStream size                      : 780 MiB (89%)\nWriting library                  : XviD 1.1.2 (UTC 2006-11-01)\n\nAudio\n\nFormat                           : MPEG Audio\nCodec ID/Hint                    : MP3\nDuration                         : 1h 44mn\nBit rate                         : 128 Kbps\nChannel(s)                       : 2 channels\nSampling rate                    : 48.0 KHz\nStream size                      : 95.8 MiB (11%)\nWriting library                  : LAME3.98\nLanguage                         : English\n\n\nText #1\nLanguage                         : English\n\nText #2\nLanguage                         : German\n\nText #3\nLanguage                         : Turkish\n\nText #4\nLanguage                         : Dutch\n\nText #5\nLanguage                         : Danish\n\nText #6\nLanguage                         : Finnish\n\nText #7\nLanguage                         : Norwegian\n\nText #8\nLanguage                         : Swedish\n\n\nA record company intern is hired to accompany out-of-controlrock star Aldous Snow to a concert at L.A.'s Greek Theater.","torrent":{"xt":"urn:btih:556db5a6c67523004b5160f279c82e980bd4e50c","amp;dn":"Get.Him.To.The.Greek.2010.DVDRiP.XviD.MULTISUB-Zen_Bud","amp;tr":["udp%3A%2F%2Ftracker.openbittorrent.com%3A80","udp%3A%2F%2Fopen.demonii.com%3A1337","udp%3A%2F%2Ftracker.coppersurfer.tk%3A6969","udp%3A%2F%2Fexodus.desync.com%3A6969"],"infoHash":"556db5a6c67523004b5160f279c82e980bd4e50c","infoHashBuffer":{"type":"Buffer","data":[85,109,181,166,198,117,35,0,75,81,96,242,121,200,46,152,11,212,229,12]},"announce":[],"urlList":[]}}